<svg width="126" height="115" fill="none" xmlns="http://www.w3.org/2000/svg">
<g filter="url(#filter0_d_1815_4362)">
<path d="M91.25 73.6071C91.25 70.0554 89.8364 66.6482 87.3155 64.1357C84.7946 61.6232 81.3761 60.2143 77.8125 60.2143C66.7776 60.2143 51.2224 60.2143 40.1875 60.2143C36.6239 60.2143 33.2054 61.6232 30.6845 64.1357C28.1636 66.6482 26.75 70.0554 26.75 73.6071V83V87H31H87H91.25C91.25 87 91.25 85.6497 91.25 83C91.25 80.7752 91.25 77.6342 91.25 73.6071ZM80.5 38.7857H91.25C94.0987 38.7857 96.8346 39.9161 98.8503 41.925C100.866 43.9339 102 46.6607 102 49.5V63V65.5714H100H94.8136C91.7929 59.2393 85.316 54.8571 77.8125 54.8571H73.2169C77.6835 50.9304 80.5 45.1821 80.5 38.7857ZM23.1864 65.5714H19H16C16 65.5714 16 64.5937 16 63.012C16 59.8986 16 54.4449 16 49.5C16 46.6607 17.1341 43.9339 19.1498 41.925C21.1654 39.9161 23.9012 38.7857 26.75 38.7857H37.5C37.5 45.1821 40.3165 50.9304 44.7831 54.8571H40.1875C32.684 54.8571 26.2071 59.2339 23.1864 65.5714ZM59 22.7143C67.901 22.7143 75.125 29.9143 75.125 38.7857C75.125 47.6571 67.901 54.8571 59 54.8571C50.099 54.8571 42.875 47.6571 42.875 38.7857C42.875 29.9143 50.099 22.7143 59 22.7143ZM38.1826 33.4071C37.9569 33.4232 37.7311 33.4286 37.5 33.4286C31.566 33.4286 26.75 28.6286 26.75 22.7143C26.75 16.8 31.566 12 37.5 12C42.6278 12 46.9224 15.5893 47.992 20.3786C43.2029 23.2339 39.6178 27.8893 38.1826 33.4071ZM70.008 20.3786C71.0776 15.5893 75.3722 12 80.5 12C86.434 12 91.25 16.8 91.25 22.7143C91.25 28.6286 86.434 33.4286 80.5 33.4286C80.2689 33.4286 80.0431 33.4232 79.8174 33.4071C78.3823 27.8893 74.7971 23.2339 70.008 20.3786Z" fill="#0669F7" fill-opacity="0.7"/>
<path d="M91.25 73.6071C91.25 70.0554 89.8364 66.6482 87.3155 64.1357C84.7946 61.6232 81.3761 60.2143 77.8125 60.2143C66.7776 60.2143 51.2224 60.2143 40.1875 60.2143C36.6239 60.2143 33.2054 61.6232 30.6845 64.1357C28.1636 66.6482 26.75 70.0554 26.75 73.6071V83V87H31H87H91.25C91.25 87 91.25 85.6497 91.25 83C91.25 80.7752 91.25 77.6342 91.25 73.6071ZM80.5 38.7857H91.25C94.0987 38.7857 96.8346 39.9161 98.8503 41.925C100.866 43.9339 102 46.6607 102 49.5V63V65.5714H100H94.8136C91.7929 59.2393 85.316 54.8571 77.8125 54.8571H73.2169C77.6835 50.9304 80.5 45.1821 80.5 38.7857ZM23.1864 65.5714H19H16C16 65.5714 16 64.5937 16 63.012C16 59.8986 16 54.4449 16 49.5C16 46.6607 17.1341 43.9339 19.1498 41.925C21.1654 39.9161 23.9012 38.7857 26.75 38.7857H37.5C37.5 45.1821 40.3165 50.9304 44.7831 54.8571H40.1875C32.684 54.8571 26.2071 59.2339 23.1864 65.5714ZM59 22.7143C67.901 22.7143 75.125 29.9143 75.125 38.7857C75.125 47.6571 67.901 54.8571 59 54.8571C50.099 54.8571 42.875 47.6571 42.875 38.7857C42.875 29.9143 50.099 22.7143 59 22.7143ZM38.1826 33.4071C37.9569 33.4232 37.7311 33.4286 37.5 33.4286C31.566 33.4286 26.75 28.6286 26.75 22.7143C26.75 16.8 31.566 12 37.5 12C42.6278 12 46.9224 15.5893 47.992 20.3786C43.2029 23.2339 39.6178 27.8893 38.1826 33.4071ZM70.008 20.3786C71.0776 15.5893 75.3722 12 80.5 12C86.434 12 91.25 16.8 91.25 22.7143C91.25 28.6286 86.434 33.4286 80.5 33.4286C80.2689 33.4286 80.0431 33.4232 79.8174 33.4071C78.3823 27.8893 74.7971 23.2339 70.008 20.3786Z" fill="url(#paint0_linear_1815_4362)" fill-opacity="0.2"/>
<rect x="69" y="73" width="10" height="3" rx="1.5" fill="white" fill-opacity="0.7"/>
</g>
<defs>
<filter id="filter0_d_1815_4362" x="0" y="0" width="126" height="115" filterUnits="userSpaceOnUse" color-interpolation-filters="sRGB">
<feFlood flood-opacity="0" result="BackgroundImageFix"/>
<feColorMatrix in="SourceAlpha" type="matrix" values="0 0 0 0 0 0 0 0 0 0 0 0 0 0 0 0 0 0 127 0" result="hardAlpha"/>
<feOffset dx="4" dy="8"/>
<feGaussianBlur stdDeviation="10"/>
<feComposite in2="hardAlpha" operator="out"/>
<feColorMatrix type="matrix" values="0 0 0 0 0.0431373 0 0 0 0 0.352941 0 0 0 0 0.8 0 0 0 0.3 0"/>
<feBlend mode="normal" in2="BackgroundImageFix" result="effect1_dropShadow_1815_4362"/>
<feBlend mode="normal" in="SourceGraphic" in2="effect1_dropShadow_1815_4362" result="shape"/>
</filter>
<linearGradient id="paint0_linear_1815_4362" x1="20.3" y1="14.5" x2="33.7882" y2="85.4912" gradientUnits="userSpaceOnUse">
<stop stop-opacity="0"/>
<stop offset="1"/>
</linearGradient>
</defs>
</svg>
