<svg width="227" height="22" viewBox="0 0 227 22" fill="none" xmlns="http://www.w3.org/2000/svg">
<path d="M11.662 22C10.0273 22 8.50229 21.7439 7.0869 21.2318C5.67151 20.6993 4.42558 19.9413 3.34908 18.9581C2.29253 17.9749 1.46522 16.8073 0.867174 15.4553C0.289058 14.1034 0 12.5978 0 10.9385C0 9.36127 0.308993 7.91713 0.926979 6.60615C1.5649 5.27467 2.42211 4.11732 3.4986 3.13408C4.57509 2.13035 5.82103 1.3622 7.23641 0.82961C8.6518 0.276537 10.1469 0 11.7218 0C12.9976 0 14.2236 0.174115 15.3998 0.522347C16.5959 0.870577 17.6724 1.32123 18.6293 1.8743C19.6061 2.42737 20.3836 3.01117 20.9617 3.6257L18.9881 6.32961C18.2904 5.71508 17.5528 5.1825 16.7753 4.73184C16.0178 4.26071 15.2005 3.90223 14.3233 3.65643C13.4462 3.39013 12.4993 3.25698 11.4826 3.25698C10.446 3.25698 9.43924 3.44134 8.46242 3.81006C7.4856 4.17877 6.60846 4.70112 5.831 5.37709C5.05353 6.03259 4.43554 6.84171 3.97704 7.80447C3.51853 8.74674 3.28928 9.79143 3.28928 10.9385C3.28928 12.2086 3.51853 13.325 3.97704 14.2877C4.45548 15.2505 5.10337 16.0698 5.9207 16.7458C6.73804 17.4013 7.66502 17.9032 8.70164 18.2514C9.73826 18.5791 10.8247 18.743 11.961 18.743C13.0574 18.743 14.0442 18.5996 14.9214 18.3128C15.7985 18.0261 16.5859 17.6574 17.2837 17.2067C17.9814 16.7561 18.6193 16.3054 19.1974 15.8547L20.7524 18.6201C20.2141 19.0912 19.4765 19.5931 18.5396 20.1257C17.6226 20.6583 16.576 21.1089 15.3998 21.4777C14.2236 21.8259 12.9777 22 11.662 22Z" fill="white"/>
<path d="M29.122 21.6927V0.184357H40.6943C41.9303 0.184357 43.0566 0.481378 44.0733 1.07542C45.09 1.64898 45.9073 2.44786 46.5253 3.47207C47.1433 4.47579 47.4523 5.60242 47.4523 6.85196C47.4523 8.10149 47.1134 9.2486 46.4356 10.2933C45.7778 11.338 44.9006 12.1778 43.8042 12.8128C42.7277 13.4274 41.5316 13.7346 40.2159 13.7346H32.3515V21.6927H29.122ZM44.5816 21.6927L37.8237 11.9832L41.2326 11.2151L48.5886 21.7235L44.5816 21.6927ZM32.3515 10.5391H40.0365C40.7541 10.5391 41.412 10.3752 42.01 10.0475C42.628 9.69925 43.1164 9.2486 43.4753 8.69553C43.854 8.12197 44.0434 7.49721 44.0434 6.82123C44.0434 6.18622 43.854 5.61266 43.4753 5.10056C43.0965 4.56797 42.5882 4.14804 41.9502 3.84078C41.3123 3.53352 40.6146 3.37989 39.8571 3.37989H32.3515V10.5391Z" fill="white"/>
<path d="M67.109 21.8771C65.0956 21.8771 63.3313 21.4469 61.8163 20.5866C60.3012 19.7058 59.1151 18.5075 58.2579 16.9916C57.4206 15.4553 57.002 13.7244 57.002 11.7989V0.153632H60.2314V11.6453C60.2314 12.9767 60.5305 14.175 61.1285 15.2402C61.7465 16.3054 62.5738 17.1453 63.6104 17.7598C64.667 18.3538 65.8232 18.6508 67.0791 18.6508C68.4347 18.6508 69.6408 18.3538 70.6973 17.7598C71.7539 17.1453 72.5911 16.3054 73.2091 15.2402C73.8271 14.175 74.1361 12.9767 74.1361 11.6453V0.153632H77.2161V11.7989C77.2161 13.7244 76.7875 15.4553 75.9303 16.9916C75.093 18.5075 73.9168 19.7058 72.4018 20.5866C70.8867 21.4469 69.1224 21.8771 67.109 21.8771Z" fill="white"/>
<path d="M86.737 21.6927V0.184357H96.8441C98.6781 0.184357 100.303 0.471136 101.718 1.04469C103.134 1.59777 104.32 2.36592 105.277 3.34916C106.253 4.3324 106.981 5.47952 107.459 6.7905C107.958 8.08101 108.207 9.46369 108.207 10.9385C108.207 12.4339 107.958 13.8371 107.459 15.148C106.981 16.459 106.253 17.6061 105.277 18.5894C104.32 19.5521 103.134 20.3101 101.718 20.8631C100.303 21.4162 98.6781 21.6927 96.8441 21.6927H86.737ZM89.9665 18.8352L89.8768 18.4972H96.6945C98.1099 18.4972 99.326 18.3129 100.343 17.9441C101.359 17.5549 102.197 17.0223 102.854 16.3464C103.512 15.6499 104.001 14.8408 104.32 13.919C104.639 12.9972 104.798 12.0037 104.798 10.9385C104.798 9.89386 104.639 8.92086 104.32 8.01955C104.001 7.09777 103.512 6.28864 102.854 5.59218C102.197 4.89572 101.359 4.35289 100.343 3.96369C99.326 3.57449 98.1099 3.37989 96.6945 3.37989H89.7871L89.9665 3.10335V18.8352Z" fill="white"/>
<path d="M134.983 21.6927V3.37989H127.448V0.184357H145.928V3.37989H138.213V21.6927H134.983Z" fill="white"/>
<path d="M153.463 21.6927V0.184357H169.999V3.37989H156.692V18.4972H169.999V21.6927H153.463ZM155.167 12.2598V9.06425H168.354V12.2598H155.167Z" fill="white"/>
<path d="M189.296 22C187.661 22 186.136 21.7439 184.721 21.2318C183.305 20.6993 182.06 19.9413 180.983 18.9581C179.926 17.9749 179.099 16.8073 178.501 15.4553C177.923 14.1034 177.634 12.5978 177.634 10.9385C177.634 9.36127 177.943 7.91713 178.561 6.60615C179.199 5.27467 180.056 4.11732 181.133 3.13408C182.209 2.13035 183.455 1.3622 184.87 0.82961C186.286 0.276537 187.781 0 189.356 0C190.632 0 191.858 0.174115 193.034 0.522347C194.23 0.870577 195.306 1.32123 196.263 1.8743C197.24 2.42737 198.018 3.01117 198.596 3.6257L196.622 6.32961C195.924 5.71508 195.187 5.1825 194.409 4.73184C193.652 4.26071 192.834 3.90223 191.957 3.65643C191.08 3.39013 190.133 3.25698 189.117 3.25698C188.08 3.25698 187.073 3.44134 186.096 3.81006C185.12 4.17877 184.242 4.70112 183.465 5.37709C182.687 6.03259 182.07 6.84171 181.611 7.80447C181.152 8.74674 180.923 9.79143 180.923 10.9385C180.923 12.2086 181.152 13.325 181.611 14.2877C182.089 15.2505 182.737 16.0698 183.555 16.7458C184.372 17.4013 185.299 17.9032 186.336 18.2514C187.372 18.5791 188.459 18.743 189.595 18.743C190.691 18.743 191.678 18.5996 192.555 18.3128C193.432 18.0261 194.22 17.6574 194.918 17.2067C195.615 16.7561 196.253 16.3054 196.831 15.8547L198.386 18.6201C197.848 19.0912 197.11 19.5931 196.174 20.1257C195.257 20.6583 194.21 21.1089 193.034 21.4777C191.858 21.8259 190.612 22 189.296 22Z" fill="white"/>
<path d="M223.771 21.6927V0.184357H227V21.6927H223.771ZM206.756 21.6927V0.184357H209.985V21.6927H206.756ZM208.161 12.6592L208.191 9.46369H225.206V12.6592H208.161Z" fill="white"/>
</svg>
