<svg width="32" height="62" fill="none" xmlns="http://www.w3.org/2000/svg">
<path d="M0.73756 2.59197C0.488227 2.71051 0.382224 3.00883 0.500796 3.2583L2.43303 7.32355C2.5516 7.57301 2.84984 7.67915 3.09917 7.56061C3.34851 7.44207 3.45451 7.14375 3.33594 6.89429L1.6184 3.28073L5.23005 1.56369C5.47939 1.44515 5.58539 1.14683 5.46682 0.897361C5.34825 0.647898 5.05 0.54176 4.80067 0.660297L0.73756 2.59197ZM27.1501 61.2997C33.8665 48.7006 32.4054 35.7985 26.7483 25.1701C21.0989 14.5561 11.2515 6.17814 1.11967 2.5725L0.784835 3.51483C10.6737 7.034 20.3296 15.2387 25.8659 25.64C31.3945 36.027 32.8014 48.5727 26.2679 60.8288L27.1501 61.2997Z" fill="white"/>
</svg>
