<svg width="652" height="532" fill="none" xmlns="http://www.w3.org/2000/svg">
<g opacity="0.85" filter="url(#filter0_d_1815_4474)">
<g filter="url(#filter1_b_1815_4474)">
<path d="M401.5 318.5L258.795 108.046L286.5 284L296.5 342L401.5 318.5Z" fill="white" fill-opacity="0.23"/>
<path d="M401.5 318.5L258.795 108.046L286.5 284L296.5 342L401.5 318.5Z" fill="url(#paint0_linear_1815_4474)" fill-opacity="0.2"/>
<path d="M286.845 283.941L259.384 109.539L400.922 318.271L296.783 341.578L286.846 283.946L286.845 283.941Z" stroke="url(#paint1_linear_1815_4474)" stroke-width="0.7" stroke-linejoin="round"/>
<path d="M286.845 283.941L259.384 109.539L400.922 318.271L296.783 341.578L286.846 283.946L286.845 283.941Z" stroke="url(#paint2_linear_1815_4474)" stroke-width="0.7" stroke-linejoin="round"/>
</g>
<g filter="url(#filter2_b_1815_4474)">
<path d="M401.5 318.5L258.795 108.046L483.5 290.5L401.5 318.5Z" fill="white" fill-opacity="0.23"/>
<path d="M401.5 318.5L258.795 108.046L483.5 290.5L401.5 318.5Z" fill="url(#paint3_linear_1815_4474)" fill-opacity="0.2"/>
<path d="M401.64 318.082L260.416 109.813L482.789 290.373L401.64 318.082Z" stroke="url(#paint4_linear_1815_4474)" stroke-width="0.7" stroke-linejoin="round"/>
</g>
<g filter="url(#filter3_b_1815_4474)">
<path d="M391.5 400.5L296.5 342L401.5 318.5L391.5 400.5Z" fill="white" fill-opacity="0.23"/>
<path d="M401.093 318.95L391.219 399.916L297.417 342.153L401.093 318.95Z" stroke="url(#paint5_linear_1815_4474)" stroke-width="0.7" stroke-linejoin="round"/>
</g>
<g filter="url(#filter4_b_1815_4474)">
<path d="M483.5 290.5V361.5L391.5 400.5L401.5 318.5L483.5 290.5Z" fill="white" fill-opacity="0.23"/>
<path d="M401.821 318.76L483.15 290.989V361.268L391.921 399.942L401.821 318.76Z" stroke="url(#paint6_linear_1815_4474)" stroke-width="0.7" stroke-linejoin="round"/>
</g>
<g filter="url(#filter5_b_1815_4474)">
<path d="M343.5 437.5L296.5 342L391.5 400.5L343.5 437.5Z" fill="white" fill-opacity="0.23"/>
<path d="M343.625 436.962L297.35 342.934L390.885 400.532L343.625 436.962Z" stroke="url(#paint7_linear_1815_4474)" stroke-width="0.7" stroke-linejoin="round"/>
</g>
<g filter="url(#filter6_b_1815_4474)">
<path d="M333.583 440.716L161.205 189.674L169.5 172L404.5 405L333.583 440.716Z" fill="white" fill-opacity="0.23"/>
<path d="M333.583 440.716L161.205 189.674L169.5 172L404.5 405L333.583 440.716Z" fill="url(#paint8_linear_1815_4474)" fill-opacity="0.2"/>
<path d="M333.698 440.266L161.607 189.641L169.606 172.598L403.908 404.906L333.698 440.266Z" stroke="url(#paint9_linear_1815_4474)" stroke-width="0.7" stroke-linejoin="round"/>
</g>
<g filter="url(#filter7_b_1815_4474)">
<path d="M413.16 379.5L318 376L413 247.5L413.16 379.5Z" fill="white" fill-opacity="0.23"/>
<path d="M412.651 248.56L412.809 379.137L318.676 375.675L412.651 248.56Z" stroke="url(#paint10_linear_1815_4474)" stroke-width="0.7" stroke-linejoin="round"/>
<path d="M412.651 248.56L412.809 379.137L318.676 375.675L412.651 248.56Z" stroke="url(#paint11_linear_1815_4474)" stroke-width="0.7" stroke-linejoin="round"/>
</g>
<g filter="url(#filter8_b_1815_4474)">
<path d="M193.5 195L169.5 172L70 226.84L193.5 195Z" fill="white" fill-opacity="0.23"/>
<path d="M193.5 195L169.5 172L70 226.84L193.5 195Z" fill="url(#paint12_linear_1815_4474)" fill-opacity="0.2"/>
<path d="M72.5945 225.81L169.444 172.431L192.804 194.818L72.5945 225.81Z" stroke="url(#paint13_linear_1815_4474)" stroke-width="0.7" stroke-linejoin="round"/>
<path d="M72.5945 225.81L169.444 172.431L192.804 194.818L72.5945 225.81Z" stroke="url(#paint14_linear_1815_4474)" stroke-width="0.7" stroke-linejoin="round"/>
</g>
<g filter="url(#filter9_b_1815_4474)">
<path d="M179.5 181.5L70 226.84L193.5 195L179.5 181.5Z" fill="white" fill-opacity="0.23"/>
<path d="M179.5 181.5L70 226.84L193.5 195L179.5 181.5Z" fill="url(#paint15_linear_1815_4474)" fill-opacity="0.2"/>
<path d="M192.806 194.817L74.7377 225.257L179.422 181.911L192.806 194.817Z" stroke="url(#paint16_linear_1815_4474)" stroke-width="0.7" stroke-linejoin="round"/>
<path d="M192.806 194.817L74.7377 225.257L179.422 181.911L192.806 194.817Z" stroke="url(#paint17_linear_1815_4474)" stroke-width="0.7" stroke-linejoin="round"/>
</g>
<g filter="url(#filter10_b_1815_4474)">
<path d="M161.5 189L169.5 172L417.5 410L378.5 427.5L345.895 441.4L161.5 189Z" fill="white" fill-opacity="0.23"/>
<path d="M161.5 189L169.5 172L417.5 410L378.5 427.5L345.895 441.4L161.5 189Z" fill="url(#paint18_linear_1815_4474)" fill-opacity="0.2"/>
<path d="M346.014 440.969L161.905 188.961L169.609 172.59L416.883 409.893L378.363 427.178L378.357 427.181L346.014 440.969Z" stroke="url(#paint19_linear_1815_4474)" stroke-width="0.7" stroke-linejoin="round"/>
</g>
<g filter="url(#filter11_b_1815_4474)">
<path d="M353.5 413L335 381L413 247.5L407 386.5L353.5 413Z" fill="white" fill-opacity="0.23"/>
<path d="M353.5 413L335 381L413 247.5L407 386.5L353.5 413Z" fill="url(#paint20_linear_1815_4474)" fill-opacity="0.2"/>
<path d="M353.639 412.541L335.405 381.001L412.589 248.897L406.659 386.278L353.639 412.541Z" stroke="url(#paint21_linear_1815_4474)" stroke-width="0.7" stroke-linejoin="round"/>
</g>
<g filter="url(#filter12_b_1815_4474)">
<path d="M345.896 441.4L331 361L417.5 410.5L345.896 441.4Z" fill="white" fill-opacity="0.23"/>
<path d="M416.719 410.456L346.16 440.905L331.482 361.679L416.719 410.456Z" stroke="url(#paint22_linear_1815_4474)" stroke-width="0.7" stroke-linejoin="round"/>
<path d="M416.719 410.456L346.16 440.905L331.482 361.679L416.719 410.456Z" stroke="url(#paint23_linear_1815_4474)" stroke-width="0.7" stroke-linejoin="round"/>
</g>
<g filter="url(#filter13_b_1815_4474)">
<path d="M408.5 387L471 375L609 10L408.5 387Z" fill="white" fill-opacity="0.23"/>
<path d="M408.5 387L471 375L609 10L408.5 387Z" fill="url(#paint24_linear_1815_4474)" fill-opacity="0.2"/>
<path d="M470.742 374.693L409.153 386.518L606.731 15.0121L470.742 374.693Z" stroke="url(#paint25_linear_1815_4474)" stroke-width="0.7" stroke-linejoin="round"/>
</g>
<g filter="url(#filter14_b_1815_4474)">
<path d="M406.5 384L413 247.5L488.5 351L406.5 384Z" fill="white" fill-opacity="0.23"/>
<path d="M406.5 384L413 247.5L488.5 351L406.5 384Z" fill="url(#paint26_linear_1815_4474)" fill-opacity="0.2"/>
<path d="M487.952 350.843L406.876 383.472L413.302 248.508L487.952 350.843Z" stroke="url(#paint27_linear_1815_4474)" stroke-width="0.7" stroke-linejoin="round"/>
</g>
<g filter="url(#filter15_b_1815_4474)">
<path d="M417.5 410.5L331 361L410 326L417.5 410.5Z" fill="white" fill-opacity="0.23"/>
<path d="M417.5 410.5L331 361L410 326L417.5 410.5Z" fill="url(#paint28_linear_1815_4474)" fill-opacity="0.2"/>
<path d="M409.695 326.518L417.092 409.863L331.774 361.04L409.695 326.518Z" stroke="url(#paint29_linear_1815_4474)" stroke-width="0.7" stroke-linejoin="round"/>
</g>
<g filter="url(#filter16_b_1815_4474)">
<path d="M496.5 357.5L431.5 380L609 10L496.5 357.5Z" fill="white" fill-opacity="0.23"/>
<path d="M496.5 357.5L431.5 380L609 10L496.5 357.5Z" fill="url(#paint30_linear_1815_4474)" fill-opacity="0.2"/>
<path d="M496.221 357.226L432.179 379.395L607.063 14.847L496.221 357.226Z" stroke="url(#paint31_linear_1815_4474)" stroke-width="0.7" stroke-linejoin="round"/>
</g>
<g filter="url(#filter17_b_1815_4474)">
<path d="M519 303L415.5 380L416.5 399L493.192 383.941L519 303Z" fill="white" fill-opacity="0.23"/>
<path d="M416.828 398.579L415.859 380.169L518.336 303.93L492.921 383.637L416.828 398.579Z" stroke="url(#paint32_linear_1815_4474)" stroke-width="0.7" stroke-linejoin="round"/>
</g>
<g filter="url(#filter18_b_1815_4474)">
<path d="M417 405L410.5 325.5L519 303L482.019 393.061L417 405Z" fill="white" fill-opacity="0.23"/>
<path d="M417 405L410.5 325.5L519 303L482.019 393.061L417 405Z" fill="url(#paint33_linear_1815_4474)" fill-opacity="0.2"/>
<path d="M481.768 392.751L417.317 404.586L410.874 325.78L518.426 303.476L481.768 392.751Z" stroke="url(#paint34_linear_1815_4474)" stroke-width="0.7" stroke-linejoin="round"/>
</g>
<g filter="url(#filter19_b_1815_4474)">
<path d="M519.185 302.769L410.195 325.57L621.791 354.527L519.185 302.769Z" fill="white" fill-opacity="0.23"/>
<path d="M519.185 302.769L410.195 325.57L621.791 354.527L519.185 302.769Z" fill="url(#paint35_linear_1815_4474)" fill-opacity="0.2"/>
<path d="M619.764 353.897L412.249 325.498L519.137 303.136L619.764 353.897Z" stroke="url(#paint36_linear_1815_4474)" stroke-width="0.7" stroke-linejoin="round"/>
</g>
<g filter="url(#filter20_b_1815_4474)">
<path d="M410.195 325.569L331 361L621.79 354.527L410.195 325.569Z" fill="white" fill-opacity="0.23"/>
<path d="M410.195 325.569L331 361L621.79 354.527L410.195 325.569Z" fill="url(#paint37_linear_1815_4474)" fill-opacity="0.2"/>
<path d="M617.37 354.275L332.725 360.612L410.246 325.93L617.37 354.275Z" stroke="url(#paint38_linear_1815_4474)" stroke-width="0.7" stroke-linejoin="round"/>
<path d="M617.37 354.275L332.725 360.612L410.246 325.93L617.37 354.275Z" stroke="url(#paint39_linear_1815_4474)" stroke-width="0.7" stroke-linejoin="round"/>
</g>
</g>
<defs>
<filter id="filter0_d_1815_4474" x="0" y="0" width="651.791" height="531.4" filterUnits="userSpaceOnUse" color-interpolation-filters="sRGB">
<feFlood flood-opacity="0" result="BackgroundImageFix"/>
<feColorMatrix in="SourceAlpha" type="matrix" values="0 0 0 0 0 0 0 0 0 0 0 0 0 0 0 0 0 0 127 0" result="hardAlpha"/>
<feOffset dx="-20" dy="40"/>
<feGaussianBlur stdDeviation="25"/>
<feComposite in2="hardAlpha" operator="out"/>
<feColorMatrix type="matrix" values="0 0 0 0 0 0 0 0 0 0 0 0 0 0 0 0 0 0 0.2 0"/>
<feBlend mode="normal" in2="BackgroundImageFix" result="effect1_dropShadow_1815_4474"/>
<feBlend mode="normal" in="SourceGraphic" in2="effect1_dropShadow_1815_4474" result="shape"/>
</filter>
<filter id="filter1_b_1815_4474" x="242.795" y="92.0459" width="174.705" height="265.954" filterUnits="userSpaceOnUse" color-interpolation-filters="sRGB">
<feFlood flood-opacity="0" result="BackgroundImageFix"/>
<feGaussianBlur in="BackgroundImageFix" stdDeviation="8"/>
<feComposite in2="SourceAlpha" operator="in" result="effect1_backgroundBlur_1815_4474"/>
<feBlend mode="normal" in="SourceGraphic" in2="effect1_backgroundBlur_1815_4474" result="shape"/>
</filter>
<filter id="filter2_b_1815_4474" x="242.795" y="92.0459" width="256.705" height="242.454" filterUnits="userSpaceOnUse" color-interpolation-filters="sRGB">
<feFlood flood-opacity="0" result="BackgroundImageFix"/>
<feGaussianBlur in="BackgroundImageFix" stdDeviation="8"/>
<feComposite in2="SourceAlpha" operator="in" result="effect1_backgroundBlur_1815_4474"/>
<feBlend mode="normal" in="SourceGraphic" in2="effect1_backgroundBlur_1815_4474" result="shape"/>
</filter>
<filter id="filter3_b_1815_4474" x="280.5" y="302.5" width="137" height="114" filterUnits="userSpaceOnUse" color-interpolation-filters="sRGB">
<feFlood flood-opacity="0" result="BackgroundImageFix"/>
<feGaussianBlur in="BackgroundImageFix" stdDeviation="8"/>
<feComposite in2="SourceAlpha" operator="in" result="effect1_backgroundBlur_1815_4474"/>
<feBlend mode="normal" in="SourceGraphic" in2="effect1_backgroundBlur_1815_4474" result="shape"/>
</filter>
<filter id="filter4_b_1815_4474" x="375.5" y="274.5" width="124" height="142" filterUnits="userSpaceOnUse" color-interpolation-filters="sRGB">
<feFlood flood-opacity="0" result="BackgroundImageFix"/>
<feGaussianBlur in="BackgroundImageFix" stdDeviation="8"/>
<feComposite in2="SourceAlpha" operator="in" result="effect1_backgroundBlur_1815_4474"/>
<feBlend mode="normal" in="SourceGraphic" in2="effect1_backgroundBlur_1815_4474" result="shape"/>
</filter>
<filter id="filter5_b_1815_4474" x="280.5" y="326" width="127" height="127.5" filterUnits="userSpaceOnUse" color-interpolation-filters="sRGB">
<feFlood flood-opacity="0" result="BackgroundImageFix"/>
<feGaussianBlur in="BackgroundImageFix" stdDeviation="8"/>
<feComposite in2="SourceAlpha" operator="in" result="effect1_backgroundBlur_1815_4474"/>
<feBlend mode="normal" in="SourceGraphic" in2="effect1_backgroundBlur_1815_4474" result="shape"/>
</filter>
<filter id="filter6_b_1815_4474" x="145.205" y="156" width="275.295" height="300.716" filterUnits="userSpaceOnUse" color-interpolation-filters="sRGB">
<feFlood flood-opacity="0" result="BackgroundImageFix"/>
<feGaussianBlur in="BackgroundImageFix" stdDeviation="8"/>
<feComposite in2="SourceAlpha" operator="in" result="effect1_backgroundBlur_1815_4474"/>
<feBlend mode="normal" in="SourceGraphic" in2="effect1_backgroundBlur_1815_4474" result="shape"/>
</filter>
<filter id="filter7_b_1815_4474" x="302" y="231.5" width="127.16" height="164" filterUnits="userSpaceOnUse" color-interpolation-filters="sRGB">
<feFlood flood-opacity="0" result="BackgroundImageFix"/>
<feGaussianBlur in="BackgroundImageFix" stdDeviation="8"/>
<feComposite in2="SourceAlpha" operator="in" result="effect1_backgroundBlur_1815_4474"/>
<feBlend mode="normal" in="SourceGraphic" in2="effect1_backgroundBlur_1815_4474" result="shape"/>
</filter>
<filter id="filter8_b_1815_4474" x="54" y="156" width="155.5" height="86.8408" filterUnits="userSpaceOnUse" color-interpolation-filters="sRGB">
<feFlood flood-opacity="0" result="BackgroundImageFix"/>
<feGaussianBlur in="BackgroundImageFix" stdDeviation="8"/>
<feComposite in2="SourceAlpha" operator="in" result="effect1_backgroundBlur_1815_4474"/>
<feBlend mode="normal" in="SourceGraphic" in2="effect1_backgroundBlur_1815_4474" result="shape"/>
</filter>
<filter id="filter9_b_1815_4474" x="54" y="165.5" width="155.5" height="77.3398" filterUnits="userSpaceOnUse" color-interpolation-filters="sRGB">
<feFlood flood-opacity="0" result="BackgroundImageFix"/>
<feGaussianBlur in="BackgroundImageFix" stdDeviation="8"/>
<feComposite in2="SourceAlpha" operator="in" result="effect1_backgroundBlur_1815_4474"/>
<feBlend mode="normal" in="SourceGraphic" in2="effect1_backgroundBlur_1815_4474" result="shape"/>
</filter>
<filter id="filter10_b_1815_4474" x="145.5" y="156" width="288" height="301.399" filterUnits="userSpaceOnUse" color-interpolation-filters="sRGB">
<feFlood flood-opacity="0" result="BackgroundImageFix"/>
<feGaussianBlur in="BackgroundImageFix" stdDeviation="8"/>
<feComposite in2="SourceAlpha" operator="in" result="effect1_backgroundBlur_1815_4474"/>
<feBlend mode="normal" in="SourceGraphic" in2="effect1_backgroundBlur_1815_4474" result="shape"/>
</filter>
<filter id="filter11_b_1815_4474" x="319" y="231.5" width="110" height="197.5" filterUnits="userSpaceOnUse" color-interpolation-filters="sRGB">
<feFlood flood-opacity="0" result="BackgroundImageFix"/>
<feGaussianBlur in="BackgroundImageFix" stdDeviation="8"/>
<feComposite in2="SourceAlpha" operator="in" result="effect1_backgroundBlur_1815_4474"/>
<feBlend mode="normal" in="SourceGraphic" in2="effect1_backgroundBlur_1815_4474" result="shape"/>
</filter>
<filter id="filter12_b_1815_4474" x="315" y="345" width="118.5" height="112.4" filterUnits="userSpaceOnUse" color-interpolation-filters="sRGB">
<feFlood flood-opacity="0" result="BackgroundImageFix"/>
<feGaussianBlur in="BackgroundImageFix" stdDeviation="8"/>
<feComposite in2="SourceAlpha" operator="in" result="effect1_backgroundBlur_1815_4474"/>
<feBlend mode="normal" in="SourceGraphic" in2="effect1_backgroundBlur_1815_4474" result="shape"/>
</filter>
<filter id="filter13_b_1815_4474" x="392.5" y="-6" width="232.5" height="409" filterUnits="userSpaceOnUse" color-interpolation-filters="sRGB">
<feFlood flood-opacity="0" result="BackgroundImageFix"/>
<feGaussianBlur in="BackgroundImageFix" stdDeviation="8"/>
<feComposite in2="SourceAlpha" operator="in" result="effect1_backgroundBlur_1815_4474"/>
<feBlend mode="normal" in="SourceGraphic" in2="effect1_backgroundBlur_1815_4474" result="shape"/>
</filter>
<filter id="filter14_b_1815_4474" x="390.5" y="231.5" width="114" height="168.5" filterUnits="userSpaceOnUse" color-interpolation-filters="sRGB">
<feFlood flood-opacity="0" result="BackgroundImageFix"/>
<feGaussianBlur in="BackgroundImageFix" stdDeviation="8"/>
<feComposite in2="SourceAlpha" operator="in" result="effect1_backgroundBlur_1815_4474"/>
<feBlend mode="normal" in="SourceGraphic" in2="effect1_backgroundBlur_1815_4474" result="shape"/>
</filter>
<filter id="filter15_b_1815_4474" x="315" y="310" width="118.5" height="116.5" filterUnits="userSpaceOnUse" color-interpolation-filters="sRGB">
<feFlood flood-opacity="0" result="BackgroundImageFix"/>
<feGaussianBlur in="BackgroundImageFix" stdDeviation="8"/>
<feComposite in2="SourceAlpha" operator="in" result="effect1_backgroundBlur_1815_4474"/>
<feBlend mode="normal" in="SourceGraphic" in2="effect1_backgroundBlur_1815_4474" result="shape"/>
</filter>
<filter id="filter16_b_1815_4474" x="415.5" y="-6" width="209.5" height="402" filterUnits="userSpaceOnUse" color-interpolation-filters="sRGB">
<feFlood flood-opacity="0" result="BackgroundImageFix"/>
<feGaussianBlur in="BackgroundImageFix" stdDeviation="8"/>
<feComposite in2="SourceAlpha" operator="in" result="effect1_backgroundBlur_1815_4474"/>
<feBlend mode="normal" in="SourceGraphic" in2="effect1_backgroundBlur_1815_4474" result="shape"/>
</filter>
<filter id="filter17_b_1815_4474" x="399.5" y="287" width="135.5" height="128" filterUnits="userSpaceOnUse" color-interpolation-filters="sRGB">
<feFlood flood-opacity="0" result="BackgroundImageFix"/>
<feGaussianBlur in="BackgroundImageFix" stdDeviation="8"/>
<feComposite in2="SourceAlpha" operator="in" result="effect1_backgroundBlur_1815_4474"/>
<feBlend mode="normal" in="SourceGraphic" in2="effect1_backgroundBlur_1815_4474" result="shape"/>
</filter>
<filter id="filter18_b_1815_4474" x="394.5" y="287" width="140.5" height="134" filterUnits="userSpaceOnUse" color-interpolation-filters="sRGB">
<feFlood flood-opacity="0" result="BackgroundImageFix"/>
<feGaussianBlur in="BackgroundImageFix" stdDeviation="8"/>
<feComposite in2="SourceAlpha" operator="in" result="effect1_backgroundBlur_1815_4474"/>
<feBlend mode="normal" in="SourceGraphic" in2="effect1_backgroundBlur_1815_4474" result="shape"/>
</filter>
<filter id="filter19_b_1815_4474" x="394.195" y="286.769" width="243.596" height="83.7588" filterUnits="userSpaceOnUse" color-interpolation-filters="sRGB">
<feFlood flood-opacity="0" result="BackgroundImageFix"/>
<feGaussianBlur in="BackgroundImageFix" stdDeviation="8"/>
<feComposite in2="SourceAlpha" operator="in" result="effect1_backgroundBlur_1815_4474"/>
<feBlend mode="normal" in="SourceGraphic" in2="effect1_backgroundBlur_1815_4474" result="shape"/>
</filter>
<filter id="filter20_b_1815_4474" x="315" y="309.569" width="322.791" height="67.4307" filterUnits="userSpaceOnUse" color-interpolation-filters="sRGB">
<feFlood flood-opacity="0" result="BackgroundImageFix"/>
<feGaussianBlur in="BackgroundImageFix" stdDeviation="8"/>
<feComposite in2="SourceAlpha" operator="in" result="effect1_backgroundBlur_1815_4474"/>
<feBlend mode="normal" in="SourceGraphic" in2="effect1_backgroundBlur_1815_4474" result="shape"/>
</filter>
<linearGradient id="paint0_linear_1815_4474" x1="347.5" y1="169" x2="307" y2="211" gradientUnits="userSpaceOnUse">
<stop stop-color="#F1F36A"/>
<stop offset="1" stop-color="white" stop-opacity="0"/>
</linearGradient>
<linearGradient id="paint1_linear_1815_4474" x1="333.214" y1="124.112" x2="265.924" y2="178.805" gradientUnits="userSpaceOnUse">
<stop stop-color="#89EAF8" stop-opacity="0.51"/>
<stop offset="1" stop-color="#51F8F8" stop-opacity="0"/>
</linearGradient>
<linearGradient id="paint2_linear_1815_4474" x1="233.5" y1="161.5" x2="339.5" y2="262" gradientUnits="userSpaceOnUse">
<stop stop-color="#CA99F1"/>
<stop offset="1" stop-color="white" stop-opacity="0"/>
</linearGradient>
<linearGradient id="paint3_linear_1815_4474" x1="393" y1="165.5" x2="340" y2="245" gradientUnits="userSpaceOnUse">
<stop stop-color="#F1F36A"/>
<stop offset="1" stop-color="#EFF25E" stop-opacity="0"/>
</linearGradient>
<linearGradient id="paint4_linear_1815_4474" x1="375.975" y1="122.498" x2="317.794" y2="205.276" gradientUnits="userSpaceOnUse">
<stop stop-color="#89EAF8" stop-opacity="0.51"/>
<stop offset="1" stop-color="#51F8F8" stop-opacity="0"/>
</linearGradient>
<linearGradient id="paint5_linear_1815_4474" x1="351.256" y1="324.131" x2="330.235" y2="359.998" gradientUnits="userSpaceOnUse">
<stop stop-color="#89EAF8" stop-opacity="0.51"/>
<stop offset="1" stop-color="#51F8F8" stop-opacity="0"/>
</linearGradient>
<linearGradient id="paint6_linear_1815_4474" x1="439.477" y1="298.054" x2="407.345" y2="333.863" gradientUnits="userSpaceOnUse">
<stop stop-color="#89EAF8" stop-opacity="0.51"/>
<stop offset="1" stop-color="#51F8F8" stop-opacity="0"/>
</linearGradient>
<linearGradient id="paint7_linear_1815_4474" x1="346.041" y1="348.558" x2="319.06" y2="384.323" gradientUnits="userSpaceOnUse">
<stop stop-color="#89EAF8" stop-opacity="0.51"/>
<stop offset="1" stop-color="#51F8F8" stop-opacity="0"/>
</linearGradient>
<linearGradient id="paint8_linear_1815_4474" x1="202.5" y1="457" x2="283" y2="335.5" gradientUnits="userSpaceOnUse">
<stop stop-color="#545454"/>
<stop offset="1" stop-opacity="0"/>
</linearGradient>
<linearGradient id="paint9_linear_1815_4474" x1="288.08" y1="190.453" x2="210.496" y2="284.054" gradientUnits="userSpaceOnUse">
<stop stop-color="#89EAF8" stop-opacity="0.51"/>
<stop offset="1" stop-color="#51F8F8" stop-opacity="0"/>
</linearGradient>
<linearGradient id="paint10_linear_1815_4474" x1="367.624" y1="256.565" x2="328.871" y2="293.791" gradientUnits="userSpaceOnUse">
<stop stop-color="#89EAF8" stop-opacity="0.51"/>
<stop offset="1" stop-color="#51F8F8" stop-opacity="0"/>
</linearGradient>
<linearGradient id="paint11_linear_1815_4474" x1="311.5" y1="283.5" x2="390.5" y2="327.5" gradientUnits="userSpaceOnUse">
<stop stop-color="#CA99F1"/>
<stop offset="1" stop-color="white" stop-opacity="0"/>
</linearGradient>
<linearGradient id="paint12_linear_1815_4474" x1="109" y1="196.5" x2="176.5" y2="203.5" gradientUnits="userSpaceOnUse">
<stop stop-color="#CA99F1"/>
<stop offset="1" stop-color="white" stop-opacity="0"/>
</linearGradient>
<linearGradient id="paint13_linear_1815_4474" x1="134.403" y1="175.766" x2="124.737" y2="204.771" gradientUnits="userSpaceOnUse">
<stop stop-color="#89EAF8" stop-opacity="0.51"/>
<stop offset="1" stop-color="#51F8F8" stop-opacity="0"/>
</linearGradient>
<linearGradient id="paint14_linear_1815_4474" x1="105" y1="181.5" x2="138" y2="213.5" gradientUnits="userSpaceOnUse">
<stop stop-color="#CA99F1"/>
<stop offset="1" stop-color="white" stop-opacity="0"/>
</linearGradient>
<linearGradient id="paint15_linear_1815_4474" x1="118.5" y1="196.5" x2="169.5" y2="210.5" gradientUnits="userSpaceOnUse">
<stop stop-color="#CA99F1"/>
<stop offset="1" stop-color="white" stop-opacity="0"/>
</linearGradient>
<linearGradient id="paint16_linear_1815_4474" x1="182.5" y1="129.5" x2="135" y2="201" gradientUnits="userSpaceOnUse">
<stop stop-color="#89EAF8" stop-opacity="0.51"/>
<stop offset="1" stop-color="#51F8F8" stop-opacity="0"/>
</linearGradient>
<linearGradient id="paint17_linear_1815_4474" x1="119" y1="186.5" x2="130.5" y2="209.5" gradientUnits="userSpaceOnUse">
<stop stop-color="#CA99F1"/>
<stop offset="1" stop-color="white" stop-opacity="0"/>
</linearGradient>
<linearGradient id="paint18_linear_1815_4474" x1="178" y1="227" x2="375" y2="278.5" gradientUnits="userSpaceOnUse">
<stop stop-color="#CA99F1"/>
<stop offset="1" stop-color="white" stop-opacity="0"/>
</linearGradient>
<linearGradient id="paint19_linear_1815_4474" x1="295" y1="190.5" x2="218" y2="288" gradientUnits="userSpaceOnUse">
<stop stop-color="#89EAF8" stop-opacity="0.51"/>
<stop offset="1" stop-color="#51F8F8" stop-opacity="0"/>
</linearGradient>
<linearGradient id="paint20_linear_1815_4474" x1="399.5" y1="263" x2="368" y2="398.5" gradientUnits="userSpaceOnUse">
<stop stop-color="#478FFC"/>
<stop offset="1" stop-color="white" stop-opacity="0"/>
</linearGradient>
<linearGradient id="paint21_linear_1815_4474" x1="375.676" y1="258.865" x2="331.874" y2="286.373" gradientUnits="userSpaceOnUse">
<stop stop-color="#89EAF8" stop-opacity="0.51"/>
<stop offset="1" stop-color="#51F8F8" stop-opacity="0"/>
</linearGradient>
<linearGradient id="paint22_linear_1815_4474" x1="376.108" y1="366.521" x2="353.939" y2="398.303" gradientUnits="userSpaceOnUse">
<stop stop-color="#89EAF8" stop-opacity="0.51"/>
<stop offset="1" stop-color="#51F8F8" stop-opacity="0"/>
</linearGradient>
<linearGradient id="paint23_linear_1815_4474" x1="322.5" y1="387" x2="391" y2="404.5" gradientUnits="userSpaceOnUse">
<stop offset="0.0346739" stop-color="#CA99F1"/>
<stop offset="1" stop-color="white" stop-opacity="0"/>
</linearGradient>
<linearGradient id="paint24_linear_1815_4474" x1="464.5" y1="301.5" x2="575.5" y2="263.5" gradientUnits="userSpaceOnUse">
<stop stop-color="#545454"/>
<stop offset="1" stop-opacity="0"/>
</linearGradient>
<linearGradient id="paint25_linear_1815_4474" x1="513.058" y1="35.889" x2="408.546" y2="109.954" gradientUnits="userSpaceOnUse">
<stop stop-color="#89EAF8" stop-opacity="0.51"/>
<stop offset="1" stop-color="#51F8F8" stop-opacity="0"/>
</linearGradient>
<linearGradient id="paint26_linear_1815_4474" x1="465.5" y1="264" x2="393" y2="384" gradientUnits="userSpaceOnUse">
<stop/>
<stop offset="0.0001" stop-color="#478FFC"/>
<stop offset="1" stop-color="white" stop-opacity="0"/>
</linearGradient>
<linearGradient id="paint27_linear_1815_4474" x1="449.262" y1="256.874" x2="410.128" y2="288.199" gradientUnits="userSpaceOnUse">
<stop stop-color="#89EAF8" stop-opacity="0.51"/>
<stop offset="1" stop-color="#51F8F8" stop-opacity="0"/>
</linearGradient>
<linearGradient id="paint28_linear_1815_4474" x1="406" y1="368" x2="386.5" y2="410" gradientUnits="userSpaceOnUse">
<stop stop-color="#545454"/>
<stop offset="1" stop-opacity="0"/>
</linearGradient>
<linearGradient id="paint29_linear_1815_4474" x1="376.108" y1="331.803" x2="352.431" y2="364.1" gradientUnits="userSpaceOnUse">
<stop stop-color="#89EAF8" stop-opacity="0.51"/>
<stop offset="1" stop-color="#51F8F8" stop-opacity="0"/>
</linearGradient>
<linearGradient id="paint30_linear_1815_4474" x1="601" y1="77.5" x2="463.5" y2="273" gradientUnits="userSpaceOnUse">
<stop stop-color="#458EFC"/>
<stop offset="0.0001" stop-color="#478FFC" stop-opacity="0.989583"/>
<stop offset="1" stop-color="white" stop-opacity="0"/>
</linearGradient>
<linearGradient id="paint31_linear_1815_4474" x1="524.063" y1="35.4083" x2="425.394" y2="98.4824" gradientUnits="userSpaceOnUse">
<stop stop-color="#89EAF8" stop-opacity="0.51"/>
<stop offset="1" stop-color="#51F8F8" stop-opacity="0"/>
</linearGradient>
<linearGradient id="paint32_linear_1815_4474" x1="469.474" y1="309.592" x2="443.022" y2="347.593" gradientUnits="userSpaceOnUse">
<stop stop-color="#89EAF8" stop-opacity="0.51"/>
<stop offset="1" stop-color="#51F8F8" stop-opacity="0"/>
</linearGradient>
<linearGradient id="paint33_linear_1815_4474" x1="500" y1="402" x2="404" y2="339" gradientUnits="userSpaceOnUse">
<stop stop-color="#545454"/>
<stop offset="1" stop-opacity="0"/>
</linearGradient>
<linearGradient id="paint34_linear_1815_4474" x1="467.081" y1="310.004" x2="438.847" y2="350.024" gradientUnits="userSpaceOnUse">
<stop stop-color="#89EAF8" stop-opacity="0.51"/>
<stop offset="1" stop-color="#51F8F8" stop-opacity="0"/>
</linearGradient>
<linearGradient id="paint35_linear_1815_4474" x1="516.001" y1="303" x2="500.501" y2="368.5" gradientUnits="userSpaceOnUse">
<stop stop-color="#F1F36A"/>
<stop offset="1" stop-color="white" stop-opacity="0"/>
</linearGradient>
<linearGradient id="paint36_linear_1815_4474" x1="520.539" y1="306.323" x2="515.138" y2="335.747" gradientUnits="userSpaceOnUse">
<stop stop-color="#89EAF8" stop-opacity="0.51"/>
<stop offset="1" stop-color="#51F8F8" stop-opacity="0"/>
</linearGradient>
<linearGradient id="paint37_linear_1815_4474" x1="376.5" y1="350.5" x2="476.395" y2="361" gradientUnits="userSpaceOnUse">
<stop offset="0.00509766" stop-color="#CA99F1"/>
<stop offset="1" stop-color="white" stop-opacity="0"/>
</linearGradient>
<linearGradient id="paint38_linear_1815_4474" x1="482.643" y1="328.002" x2="480.755" y2="348.65" gradientUnits="userSpaceOnUse">
<stop stop-color="#89EAF8" stop-opacity="0.51"/>
<stop offset="1" stop-color="#51F8F8" stop-opacity="0"/>
</linearGradient>
<linearGradient id="paint39_linear_1815_4474" x1="362.5" y1="326" x2="482.5" y2="368.5" gradientUnits="userSpaceOnUse">
<stop stop-color="#CA99F1"/>
<stop offset="1" stop-color="white" stop-opacity="0"/>
</linearGradient>
</defs>
</svg>
