<svg width="95" height="29" fill="none" xmlns="http://www.w3.org/2000/svg">
<g clip-path="url(#clip0_1815_4150)">
<path d="M25.9986 18.1833C24.4548 18.1833 23.0082 17.5386 21.6939 16.4891L22.0139 15.0074L22.0279 14.9525C22.3128 13.375 23.2169 10.7271 25.9986 10.7271C28.0847 10.7271 29.7815 12.4009 29.7815 14.4586C29.7745 16.5096 28.0778 18.1833 25.9986 18.1833ZM25.9986 6.94765C22.4449 6.94765 19.6913 9.22499 18.5718 12.9702C16.8611 10.4391 15.5675 7.40041 14.8097 4.8418H10.985V14.6575C10.985 16.5919 9.38552 18.1694 7.42447 18.1694C5.46343 18.1694 3.86417 16.5919 3.86417 14.6575V4.8418H0.0391061V14.6575C0.0251914 18.6773 3.34227 21.9765 7.41724 21.9765C11.4924 21.9765 14.8095 18.6773 14.8095 14.6575V13.0114C15.5534 14.541 16.4644 16.0843 17.5702 17.4563L15.2265 28.3214H19.1418L20.8384 20.44C22.3266 21.3797 24.0373 21.9697 25.9984 21.9697C30.1915 21.9697 33.606 18.5812 33.606 14.4449C33.606 10.3155 30.1915 6.94765 25.9984 6.94765H25.9986Z" fill="#6FDA44"/>
<path d="M45.2809 7.37307L47.7496 17.1888L50.4687 7.37307H53.7091L49.5299 21.5583H46.2893L43.7234 11.6807L41.1642 21.5513H37.9237L33.7441 7.3663H36.9848L39.7037 17.182L42.1724 7.3663H45.2807V7.37325L45.2809 7.37307ZM61.4628 6.94776C57.2557 6.94776 53.8483 10.3156 53.8483 14.4587C53.8483 18.6088 57.2626 21.9699 61.4628 21.9699C65.67 21.9699 69.0843 18.6088 69.0843 14.4587C69.0843 10.3089 65.67 6.94776 61.4628 6.94776ZM61.4628 18.8831C58.9873 18.8831 56.9845 16.9075 56.9845 14.4657C56.9845 12.0236 58.9941 10.0483 61.4628 10.0483C63.9385 10.0483 65.9411 12.0236 65.9411 14.4657C65.9411 16.9008 63.9385 18.8831 61.4628 18.8831ZM78.34 10.549C76.1636 10.549 74.4042 12.2912 74.4042 14.4313V21.5513H71.1426V7.37307H74.4042V9.55432C74.4042 9.55432 75.7949 7.36612 78.653 7.36612H79.6543V10.549H78.34ZM89.2857 13.9101C91.6011 12.6204 93.1729 10.1716 93.1729 7.36612H89.9113C89.9113 9.73257 87.9644 11.6532 85.5653 11.6532H85.1271V0.527344H81.8658V21.5511H85.1271V14.8703H85.5167C85.8365 14.8703 86.2538 15.0762 86.4415 15.3298L91.0727 21.5513H94.9809L89.2857 13.9101Z" fill="white"/>
</g>
<defs>
<clipPath id="clip0_1815_4150">
<rect width="95" height="28" fill="white" transform="translate(0 0.5)"/>
</clipPath>
</defs>
</svg>
